# AST/ASF file generated using VICON BodyLanguage
# -----------------------------------------------
:version 1.10
:name VICON
:units
  mass 1.0
  length 0.45
  angle deg
:documentation
   .ast/.asf automatically generated from VICON data using
   VICON BodyBuilder and BodyLanguage model FoxedUp or BRILLIANT.MOD
:root
   order TX TY TZ RX RY RZ
   axis XYZ
   position 0 0 0  
   orientation 0 0 0 
:bonedata
  begin
     id 1 
     name lhipjoint
     direction 0.528046 -0.759594 0.379717 
     length 2.39752 
     axis 0 0 0  XYZ
  end
  begin
     id 2 
     name lfemur
     direction 0.34202 -0.939693 0  
     length 7.31175  
     axis 0 0 20  XYZ
    dof rx ry rz
    limits (-160.0 20.0)
           (-70.0 70.0)
           (-60.0 70.0)
  end
  begin
     id 3 
     name ltibia
     direction 0.34202 -0.939693 0   
     length 7.52482   
     axis 0 0 20   XYZ
    dof rx
    limits (-10.0 170.0)
  end
  begin
     id 4 
     name lfoot
     direction 0.0675379 -0.185559 0.980309   
     length 2.00961   
     axis -90 7.62852e-016 20   XYZ
    dof rx rz
    limits (-45.0 90.0)
           (-70.0 20.0)
  end
  begin
     id 5 
     name ltoes
     direction 1.5352e-011 -4.22286e-011 1   
     length 1.01383   
     axis -90 7.62852e-016 20   XYZ
    dof rx
    limits (-90.0 20.0)
  end
  begin
     id 6 
     name rhipjoint
     direction -0.510274 -0.769251 0.384544   
     length 2.36742  
     axis 0 0 0  XYZ 
  end
  begin
     id 7 
     name rfemur
     direction -0.34202 -0.939693 0   
     length 7.45325   
     axis 0 0 -20   XYZ
    dof rx ry rz
    limits (-160.0 20.0)
           (-70.0 70.0)
           (-70.0 60.0)
  end
  begin
     id 8 
     name rtibia
     direction -0.34202 -0.939693 0   
     length 7.49587   
     axis 0 0 -20   XYZ
    dof rx
    limits (-10.0 170.0)
 end
 begin
     id 9 
     name rfoot
     direction -0.106475 -0.292536 0.950308   
     length 2.20898  
     axis -90 -7.62852e-016 -20   XYZ
    dof rx rz
    limits (-45.0 90.0)
           (-20.0 70.0)
  end
  begin
     id 10 
     name rtoes
     direction -1.53597e-011 -4.22023e-011 1   
     length 1.10065   
     axis -90 -7.62852e-016 -20   XYZ
    dof rx
    limits (-90.0 20.0)
  end
  begin
     id 11 
     name lowerback
     direction 0.0260024 0.998026 -0.0571652   
     length 2.11214   
     axis 0 0 0   XYZ
    dof rx ry rz
    limits (-20.0 45.0)
           (-30.0 30.0)
           (-30.0 30.0)
  end
  begin
     id 12 
     name upperback
     direction 0.0216202 0.999542 -0.0211766   
     length 2.11689   
     axis 0 0 0   XYZ
    dof rx ry rz
    limits (-20.0 45.0)
           (-30.0 30.0)
           (-30.0 30.0)
  end
  begin
     id 13 
     name thorax
     direction 0.00883312 0.999944 0.00589057   
     length 2.11821   
     axis 0 0 0   XYZ
    dof rx ry rz
    limits (-20.0 45.0)
           (-30.0 30.0)
           (-30.0 30.0)
  end
  begin
     id 14 
     name lowerneck
     direction -0.059386 0.994433 0.0870401   
     length 1.81176   
     axis 0 0 0   XYZ
    dof rx ry rz
    limits (-20.0 45.0)
           (-30.0 30.0)
           (-30.0 30.0)
  end
  begin
     id 15 
     name upperneck
     direction 0.0506457 0.97328 -0.223967   
     length 1.82382   
     axis 0 0 0   XYZ
    dof rx ry rz
    limits (-20.0 45.0)
           (-30.0 30.0)
           (-30.0 30.0)
  end
  begin
     id 16
     name head
     direction 0.0205902 0.996147 -0.0852487  
     length 1.84805  
     axis 0 0 0   XYZ
    dof rx ry rz
    limits (-20.0 45.0)
           (-30.0 30.0)
           (-30.0 30.0)
  end
  begin
     id 17 
     name lclavicle
     direction 0.949493 0.303881 -0.0782325  
     length 3.60584  
     axis 0 0 0   XYZ
    dof ry rz
    limits (-20.0 10.0)
           (0.0 20.0)
  end
  begin
     id 18 
     name lhumerus
     direction 1 -4.48965e-011 1.48782e-027   
     length 4.95681   
     axis 180 -30 -90   XYZ
    dof rx ry rz
    limits (-60.0 90.0)
           (-90.0 90.0)
           (-90.0 90.0)
  end
  begin
     id 19
     name lradius
     direction 1 -4.48952e-011 2.06528e-027   
     length 3.40915   
     axis 180 -30 -90   XYZ
    dof rx
    limits (-10.0 170.0)
  end
  begin
     id 20
     name lwrist
     direction 1 -4.48964e-011 1.28021e-027   
     length 1.70457   
     axis -1.61767e-015 90 90   XYZ
    dof ry
    limits (-180.0 0.0)
 end
  begin
     id 21 
     name lhand
     direction 1 -4.49094e-011 2.54887e-027   
     length 0.616403   
     axis -1.63363e-015 90 90   XYZ
    dof rx rz
    limits (-90.0 90.0)
           (-45.0 45.0)
  end
  begin
     id 22 
     name lfingers
     direction 1 -4.49002e-011 5.11407e-027   
     length 0.49696   
     axis -3.26723e-015 90 90   XYZ
    dof rx
    limits (0.0 90.0)
  end
  begin
     id 23
     name lthumb
     direction 0.707107 -6.34998e-011 0.707107   
     length 0.713539   
     axis -90 45 -2.25915e-014   XYZ
    dof rx rz
    limits (-45.0 45.0)
           (-45.0 45.0)
  end
  begin
     id 24 
     name rclavicle
     direction -0.937751 0.334612 -0.0930482   
     length 3.46287  
     axis 0 0 0   XYZ 
    dof ry rz
    limits (-10.0 20.0)
           (-20.0 0.0)
  end
  begin
     id 25 
     name rhumerus
     direction -1 -4.48962e-011 3.59972e-027  
     length 5.352   
     axis 180 30 90   XYZ
    dof rx ry rz
    limits (-90.0 60.0)
           (-90.0 90.0)
           (-90.0 90.0)
  end
  begin
     id 26 
     name rradius
     direction -1 -4.48987e-011 -3.76925e-027   
     length 3.43721   
     axis 180 30 90   XYZ
    dof rx
    limits (-10.0 170.0)
  end
  begin
     id 27 
     name rwrist
     direction -1 -4.48943e-011 1.28112e-027   
     length 1.7186   
     axis -1.61767e-015 -90 -90   XYZ
    dof ry
    limits (-180.0 0.0)
  end
  begin
     id 28
     name rhand
     direction -1 -4.49027e-011 2.55483e-027   
     length 0.72009   
     axis -1.63363e-015 -90 -90   XYZ
    dof rx rz
    limits (-90.0 90.0)
           (-45.0 45.0)
  end
  begin
     id 29
     name rfingers
     direction -1 -4.48827e-011 5.14506e-027   
     length 0.580555   
     axis -3.26723e-015 -90 -90   XYZ
    dof rx
    limits (0.0 90.0)
  end
  begin
     id 30
     name rthumb
     direction -0.707107 -6.34936e-011 0.707107   
     length 0.833564   
     axis -90 -45 2.25915e-014   XYZ
    dof rx rz
    limits (-45.0 45.0)
           (-45.0 45.0)
  end
:hierarchy
  begin
    root lhipjoint rhipjoint lowerback
    lhipjoint lfemur
    lfemur ltibia
    ltibia lfoot
    lfoot ltoes
    rhipjoint rfemur
    rfemur rtibia
    rtibia rfoot
    rfoot rtoes
    lowerback upperback
    upperback thorax
    thorax lowerneck lclavicle rclavicle
    lowerneck upperneck
    upperneck head
    lclavicle lhumerus
    lhumerus lradius
    lradius lwrist
    lwrist lhand lthumb
    lhand lfingers
    rclavicle rhumerus
    rhumerus rradius
    rradius rwrist
    rwrist rhand rthumb
    rhand rfingers
  end

#!OML:ASF H:\Terrain\Patient Classification 1\Terrain2\Thursday\justin.ASF
:FULLY-SPECIFIED
:DEGREES
138
root -0.833356 20.5595 12.8974 298.02 -88.6801 -300.62
lowerback 4.10883 -0.600781 -4.67588
upperback 3.07601 -1.01479 2.37561
thorax 0.994918 -0.636924 5.11782
lowerneck -11.3773 -3.58415 -9.96866
upperneck 36.9852 -6.87324 6.21889
head 15.4598 -4.07307 3.1351
rclavicle 1.19271e-015 -2.38542e-015
rhumerus -35.6659 -11.6737 -79.4311
rradius 27.0933
rwrist -10.2108
rhand -20.9997 9.86595
rfingers 7.12502
rthumb 5.37465 -20.0459
lclavicle 1.19271e-015 -2.38542e-015
lhumerus -35.5702 5.95425 88.6486
lradius 25.5305
lwrist -2.42353
lhand -14.1401 21.8655
lfingers 7.12502
lthumb 11.994 51.5019
rfemur -34.3807 -9.95184 20.2625
rtibia 61.343
rfoot -11.2536 -6.7976
rtoes 7.84268
lfemur 4.70535 1.41071 -23.7277
ltibia 20.0998
lfoot -16.0119 -9.80325
ltoes 21.2985
139
root -0.872598 20.5642 12.894 303.934 -88.1935 -306.551
lowerback 4.26702 -1.2958 -5.56554
upperback 3.2179 -1.99099 2.90523
thorax 1.2329 -1.1655 6.20919
lowerneck -12.336 -3.1496 -11.2619
upperneck 37.1945 -5.69955 6.19183
head 15.7115 -3.7426 3.54942
rclavicle -1.59028e-015 5.56597e-015
rhumerus -34.5362 -9.28519 -79.5651
rradius 26.8807
rwrist -10.5903
rhand -21.5501 10.0947
rfingers 7.12502
rthumb 4.84316 -19.8299
lclavicle -1.59028e-015 5.56597e-015
lhumerus -35.3227 8.45712 88.7538
lradius 25.2292
lwrist -2.77862
lhand -14.3771 21.7859
lfingers 7.12502
lthumb 11.7655 51.4355
rfemur -34.9211 -10.3568 19.8326
rtibia 60.5316
rfoot -10.7283 -6.54104
rtoes 10.677
lfemur 5.20951 1.59272 -23.9512
ltibia 19.3561
lfoot -15.6783 -10.1887
ltoes 21.0782
140
root -0.929564 20.5608 12.8986 308.705 -88.2572 -311.498
lowerback 4.32872 -1.25081 -5.22896
upperback 3.33933 -1.92604 2.84798
thorax 1.29886 -1.13293 5.95463
lowerneck -12.4241 -3.20219 -11.106
upperneck 37.0992 -5.78008 6.17249
head 15.6875 -3.74653 3.49693
rclavicle 2.5842e-015 -1.35174e-014
rhumerus -34.3068 -9.38969 -79.71
rradius 26.8595
rwrist -10.4401
rhand -21.6156 10.1716
rfingers 7.12502
rthumb 4.77996 -19.7545
lclavicle 2.5842e-015 -1.35174e-014
lhumerus -35.1487 7.82543 88.9255
lradius 24.9529
lwrist -2.53263
lhand -14.6308 22.042
lfingers 7.12502
lthumb 11.5208 51.7053
rfemur -35.0761 -10.4777 19.9412
rtibia 59.5248
rfoot -9.83995 -6.38312
rtoes 9.6882
lfemur 5.82661 1.58341 -23.8036
ltibia 18.9157
lfoot -15.6024 -9.94796
ltoes 20.7109
141
root -0.986976 20.5592 12.8861 308.952 -88.1886 -311.773
lowerback 4.24101 -1.11845 -5.29827
upperback 3.40611 -1.74564 2.73561
thorax 1.38994 -1.0466 5.86829
lowerneck -12.5556 -3.29051 -10.8456
upperneck 37.1206 -5.98049 6.20583
head 15.7446 -3.78428 3.43012
rclavicle -6.4605e-015 -1.59028e-014
rhumerus -34.2435 -9.66919 -79.8869
rradius 26.9685
rwrist -10.5446
rhand -21.1382 10.1548
rfingers 7.12502
rthumb 5.24093 -19.7604
lclavicle -6.4605e-015 -1.59028e-014
lhumerus -35.0191 7.39512 88.9321
lradius 24.6825
lwrist -2.61285
lhand -14.253 21.9697
lfingers 7.12502
lthumb 11.8851 51.6124
rfemur -35.3388 -10.3182 19.9607
rtibia 58.4833
rfoot -8.84503 -6.60103
rtoes 7.76809
lfemur 6.2821 1.50411 -23.8267
ltibia 18.4954
lfoot -15.4379 -9.94127
ltoes 21.3696
142
root -1.03952 20.5558 12.8793 306.037 -87.7157 -308.699
lowerback 4.02489 -0.640565 -5.36768
upperback 3.27384 -1.08189 2.07757
thorax 1.26541 -0.692688 5.19818
lowerneck -12.1158 -3.65276 -9.92712
upperneck 37.1273 -7.0389 6.60772
head 15.7451 -4.06289 3.26226
rclavicle -2.6339e-015 7.15625e-015
rhumerus -34.9355 -11.9914 -79.8987
rradius 27.2347
rwrist -10.0145
rhand -20.6366 10.0964
rfingers 7.12502
rthumb 5.72517 -19.8062
lclavicle -2.6339e-015 7.15625e-015
lhumerus -35.11 5.50024 88.6534
lradius 24.4626
lwrist -2.65271
lhand -13.6346 21.6445
lfingers 7.12502
lthumb 12.4814 51.2518
rfemur -35.8402 -10.5397 19.5368
rtibia 57.3331
rfoot -7.84144 -6.66435
rtoes 7.60669
lfemur 6.36714 1.21156 -24.3434
ltibia 18.3637
lfoot -15.4643 -9.79967
ltoes 21.6865
143
root -1.0899 20.5436 12.8829 311.466 -87.5436 -314.164
lowerback 4.02359 -1.21478 -5.63598
upperback 3.36458 -1.86582 2.50387
thorax 1.48996 -1.10991 5.81401
lowerneck -12.5885 -3.25432 -11.0336
upperneck 37.2987 -6.0426 6.58625
head 15.8735 -3.79737 3.62454
rclavicle -5.75482e-014 2.8625e-014
rhumerus -34.1488 -10.185 -80.0163
rradius 27.0382
rwrist -9.87692
rhand -20.2035 10.1376
rfingers 7.12502
rthumb 6.14336 -19.7533
lclavicle -5.75482e-014 2.8625e-014
lhumerus -35.1759 7.89414 88.4645
lradius 24.4271
lwrist -3.29296
lhand -13.7701 21.6638
lfingers 7.12502
lthumb 12.3508 51.279
rfemur -36.0235 -10.8497 19.5444
rtibia 56.0765
rfoot -6.70787 -6.73355
rtoes 8.11373
lfemur 6.63091 0.939318 -24.365
ltibia 18.2916
lfoot -15.6335 -9.63097
ltoes 20.8533
